Coordinates
version=1
nRows=19
nColumns=24
inDegrees=yes

Units are S.I. units (second, meters, Newtons, ...)
Angles are in degrees.

endheader
time	pelvis_tilt	pelvis_list	pelvis_rotation	pelvis_tx	pelvis_ty	pelvis_tz	hip_flexion_r	hip_adduction_r	hip_rotation_r	knee_angle_r	ankle_angle_r	subtalar_angle_r	mtp_angle_r	hip_flexion_l	hip_adduction_l	hip_rotation_l	knee_angle_l	ankle_angle_l	subtalar_angle_l	mtp_angle_l	lumbar_extension	lumbar_bending	lumbar_rotation
      6.71000000	     38.22282517	      0.05534939	      1.94412929	      1.84624824	      0.67978202	     -0.24906458	    -20.58089801	     -5.19903150	    -16.58643788	    -58.57598692	     11.97255010	      0.51489831	      0.00000000	    -31.09785924	      0.32743506	     -1.26930731	    -16.22588161	     16.50061141	      9.06010510	      0.00000000	    -64.94375777	      2.46583845	     -3.73816653
      6.71500000	     38.10977682	      0.06233521	      2.09348356	      1.85114372	      0.67998873	     -0.24890470	    -19.77096724	     -5.01621273	    -16.77940971	    -57.64990705	     12.41885902	      1.18219438	      0.00000000	    -31.57702617	      0.19550208	     -1.35528564	    -15.95603730	     16.80420336	      9.36439600	      0.00000000	    -64.93907722	      2.54795103	     -3.94254279
      6.72000000	     38.00407811	      0.09578597	      2.24056283	      1.85604970	      0.68013112	     -0.24875681	    -19.01048278	     -4.86592483	    -16.98194571	    -56.62457141	     12.82992403	      1.79172507	      0.00000000	    -32.06853847	      0.08955324	     -1.43097970	    -15.67735729	     17.12233271	      9.69261954	      0.00000000	    -64.93746475	      2.63019109	     -4.15533745
      6.72500000	     37.90071929	      0.13720422	      2.37966468	      1.86096896	      0.68022689	     -0.24856678	    -18.29772370	     -4.71507003	    -17.16281947	    -55.47923992	     13.19483100	      2.33974727	      0.00000000	    -32.55652628	     -0.00906845	     -1.50569061	    -15.41673952	     17.42995854	      9.99612045	      0.00000000	    -64.93454802	      2.69150719	     -4.37218164
      6.73000000	     37.80711463	      0.19552586	      2.51871288	      1.86588105	      0.68026647	     -0.24835517	    -17.63936652	     -4.57899917	    -17.34902274	    -54.22665146	     13.51978339	      2.82022148	      0.00000000	    -33.05351709	     -0.09466250	     -1.56676392	    -15.15630367	     17.74217789	     10.29469287	      0.00000000	    -64.93851130	      2.73669603	     -4.59648200
      6.73500000	     37.71335817	      0.26156874	      2.64926736	      1.87080853	      0.68025371	     -0.24813538	    -17.02621950	     -4.44837228	    -17.51755172	    -52.86134959	     13.80598277	      3.23966647	      0.00000000	    -33.54915618	     -0.16724578	     -1.61705325	    -14.90441793	     18.04761418	     10.56627287	      0.00000000	    -64.93862396	      2.77599880	     -4.82333106
      6.74000000	     37.62901086	      0.34619240	      2.78540713	      1.87574148	      0.68018840	     -0.24789414	    -16.47507441	     -4.32909936	    -17.69201288	    -51.38257387	     14.05377737	      3.59348978	      0.00000000	    -34.05219947	     -0.22993925	     -1.64972786	    -14.65830631	     18.35739130	     10.82397456	      0.00000000	    -64.94654954	      2.80427489	     -5.05665459
      6.74500000	     37.54117127	      0.43687799	      2.91169078	      1.88068268	      0.68006956	     -0.24764136	    -15.96492556	     -4.21321763	    -17.84317632	    -49.79357264	     14.26293295	      3.88410895	      0.00000000	    -34.55050283	     -0.27974915	     -1.65984176	    -14.41815684	     18.65734315	     11.04017388	      0.00000000	    -64.94822441	      2.81724955	     -5.29270060
      6.75000000	     37.47921949	      0.54813911	      3.05311801	      1.88566709	      0.67991294	     -0.24743146	    -15.55227398	     -4.11660357	    -18.02483480	    -48.07697864	     14.43586298	      4.12185699	      0.00000000	    -35.07812750	     -0.31835579	     -1.63644815	    -14.18817636	     18.97722446	     11.26646295	      0.00000000	    -64.95040579	      2.85245269	     -5.53660799
      6.75500000	     37.42161064	      0.66783263	      3.20074810	      1.89064849	      0.67970576	     -0.24718882	    -15.19483955	     -4.01538967	    -18.20303920	    -46.25015684	     14.57386493	      4.30787117	      0.00000000	    -35.60784597	     -0.35652304	     -1.58963261	    -13.96084251	     19.28787169	     11.44466890	      0.00000000	    -64.96538644	      2.87415149	     -5.78594649
      6.76000000	     37.36304923	      0.80083027	      3.34296046	      1.89564288	      0.67944233	     -0.24694480	    -14.88768547	     -3.92631132	    -18.37648369	    -44.31702458	     14.68781689	      4.44151249	      0.00000000	    -36.13613746	     -0.37884148	     -1.52478839	    -13.73877942	     19.59812030	     11.58932889	      0.00000000	    -64.97689431	      2.88626102	     -6.03419338
      6.76500000	     37.34846741	      0.97327215	      3.51414207	      1.90063744	      0.67914294	     -0.24670642	    -14.70070788	     -3.86323648	    -18.60866472	    -42.26182523	     14.81714940	      4.50191927	      0.00000000	    -36.70733655	     -0.38911245	     -1.41602666	    -13.52669508	     19.91538014	     11.71194368	      0.00000000	    -65.02913670	      2.88892005	     -6.28237602
      6.77000000	     37.23639926	      1.10641715	      3.60293414	      1.90566947	      0.67873863	     -0.24645380	    -14.41461773	     -3.78904155	    -18.71101919	    -40.14693381	     14.85753565	      4.59610859	      0.00000000	    -37.17254718	     -0.37010301	     -1.35384857	    -13.33234597	     20.22272135	     11.78726534	      0.00000000	    -64.97897236	      2.86766080	     -6.50483061
      6.77500000	     37.02807003	      1.30697040	      3.53306121	      1.91065207	      0.67815689	     -0.24607879	    -13.99077096	     -3.83860561	    -18.65145336	    -38.05331124	     15.00464268	      4.58059244	      0.00000000	    -37.53368265	     -0.17728323	     -1.33685049	    -13.14342267	     20.48801073	     11.73366368	      0.00000000	    -64.85143180	      2.66235089	     -6.65957024
      6.78000000	     37.10692416	      1.48356326	      3.88452662	      1.91575393	      0.67781660	     -0.24593648	    -14.16888461	     -3.69742689	    -19.12073090	    -35.56077548	     15.00137534	      4.58509069	      0.00000000	    -38.18461670	     -0.32439625	     -1.13727834	    -12.98428121	     20.87653974	     11.99171962	      0.00000000	    -64.96735370	      2.81613309	     -6.97556612
      6.78500000	     37.06384436	      1.66464436	      4.01107151	      1.92085528	      0.67729990	     -0.24572365	    -14.15720166	     -3.64811293	    -19.33918022	    -33.11259481	     15.02341556	      4.63184472	      0.00000000	    -38.72281062	     -0.29130837	     -1.01015194	    -12.81064794	     21.17453931	     11.98215394	      0.00000000	    -64.96746369	      2.80274321	     -7.21729499
      6.79000000	     36.97231268	      1.86476128	      4.11828397	      1.92596430	      0.67669810	     -0.24546553	    -14.12845533	     -3.61999889	    -19.56077005	    -30.59883680	     15.03121289	      4.62041855	      0.00000000	    -39.19390567	     -0.23453880	     -0.92116645	    -12.67044176	     21.50234070	     12.03980105	      0.00000000	    -64.92129429	      2.75321133	     -7.44911532
      6.79500000	     36.93685928	      2.08806579	      4.23787157	      1.93109706	      0.67608484	     -0.24522519	    -14.23054809	     -3.60511548	    -19.84383923	    -27.98427927	     15.03255621	      4.67093880	      0.00000000	    -39.72935305	     -0.16940981	     -0.79817548	    -12.53085199	     21.79784653	     12.05464029	      0.00000000	    -64.92359711	      2.70752852	     -7.74179911
      6.80000000	     36.75712260	      2.26649052	      4.28164123	      1.93628110	      0.67532519	     -0.24495973	    -14.17143030	     -3.57804040	    -20.06907694	    -25.35264110	     14.95027523	      4.65689647	      0.00000000	    -40.09263618	     -0.07728807	     -0.77423843	    -12.43988806	     22.16974379	     12.07768162	      0.00000000	    -64.77507021	      2.62342596	     -7.88765643
